<svg height="30" viewBox="0 0 148 30" width="148" xmlns="http://www.w3.org/2000/svg"><g fill="#e60012"><path d="m8.9 23.087-2.067 5.113h-6.006l11.427-26.68h5.305l11.388 26.68h-5.967l-2.067-5.11zm5.968-14.82-3.9 9.712h7.879z"/><path d="m56.224 20.9c0 4.368-3.627 7.294-9.517 7.294h-13.494v-26.518h12.87c5.655 0 8.971 2.652 8.971 6.981a6.086 6.086 0 0 1 -3.705 5.811c3.351.702 4.875 3.432 4.875 6.432zm-17.356-8.265h6.474c2.847 0 4.408-1.287 4.408-3.2 0-1.872-1.483-2.886-4.408-2.886h-6.474zm7.449 10.687c3 0 4.369-1.444 4.369-3.12 0-1.833-1.639-2.77-4.213-2.77h-7.6v5.89z"/><path d="m88.367 14.936a13.865 13.865 0 1 1 -13.885-13.806 13.75 13.75 0 0 1 13.885 13.806zm-5.733 0a8.16 8.16 0 1 0 -16.3 0 8.16 8.16 0 1 0 16.3 0z"/><path d="m117.683 16.146c0 7.916-4.759 12.636-12.013 12.636-7.215 0-11.934-4.72-11.934-12.636v-14.47h5.616v14.508c0 4.407 2.535 7.333 6.318 7.333 3.861 0 6.4-2.926 6.4-7.333v-14.508h5.617z"/><path d="m136.441 6.824v21.376h-5.655v-21.376h-8.853v-5.148h23.361v5.148z"/></g></svg>