<svg height="30" viewBox="0 0 170 30" width="170" xmlns="http://www.w3.org/2000/svg"><g fill="#e60012"><path d="m8.9 23.087-2.067 5.113h-6.006l11.427-26.68h5.305l11.388 26.68h-5.967l-2.067-5.11zm5.968-14.82-3.9 9.712h7.879z"/><path d="m52 17.471h5.771c-1.091 6.787-6.2 11.272-13.065 11.272a13.526 13.526 0 0 1 -13.845-13.807 13.526 13.526 0 0 1 13.845-13.806c6.864 0 11.974 4.485 13.065 11.27h-5.771c-.937-3.783-3.472-5.889-7.294-5.889-4.719 0-8.151 3.393-8.151 8.424s3.432 8.425 8.151 8.425c3.822.001 6.357-2.106 7.294-5.889z"/><path d="m83.511 17.471h5.772c-1.092 6.787-6.2 11.272-13.065 11.272a13.526 13.526 0 0 1 -13.845-13.807 13.526 13.526 0 0 1 13.845-13.806c6.864 0 11.973 4.485 13.065 11.271h-5.772c-.936-3.783-3.471-5.889-7.293-5.889-4.719 0-8.152 3.393-8.152 8.424s3.433 8.425 8.152 8.425c3.822 0 6.357-2.107 7.293-5.89z"/><path d="m100.736 12.557h12.4v5.11h-12.4v5.42h14v5.113h-19.654v-26.524h19.656v5.109h-14z"/><path d="m141.559 9.788h-5.578c-.35-2.34-1.833-3.978-5.07-3.978-2.768 0-4.6 1.209-4.6 3.276 0 1.794 1.364 2.574 3.783 3.081l3.275.663c5.07 1.053 8.073 3.043 8.073 7.488 0 5.071-4.172 8.425-10.53 8.425-6.4 0-11.154-3.432-11.622-9.322h5.616c.429 2.653 2.769 4.408 6.319 4.408 2.768 0 4.368-1.092 4.368-2.887 0-1.091-.624-2.262-3.316-2.73l-4.329-.858c-5.265-1.053-7.566-3.627-7.566-7.761 0-5.109 4.056-8.5 10.14-8.5 4.446-.002 10.413 1.831 11.037 8.695z"/><path d="m168.621 9.788h-5.577c-.352-2.34-1.833-3.978-5.07-3.978-2.77 0-4.6 1.209-4.6 3.276 0 1.794 1.365 2.574 3.783 3.081l3.277.663c5.07 1.053 8.073 3.043 8.073 7.488 0 5.071-4.173 8.425-10.53 8.425-6.4 0-11.155-3.432-11.623-9.322h5.616c.429 2.653 2.769 4.408 6.318 4.408 2.77 0 4.368-1.092 4.368-2.887 0-1.091-.624-2.262-3.314-2.73l-4.33-.858c-5.265-1.053-7.566-3.627-7.566-7.761 0-5.109 4.056-8.5 10.14-8.5 4.443-.002 10.414 1.831 11.035 8.695z"/></g></svg>