<svg height="30" viewBox="0 0 204 30" width="204" xmlns="http://www.w3.org/2000/svg"><g fill="#e60012"><path d="m23.292 17.471h5.771c-1.091 6.787-6.201 11.272-13.063 11.272a13.526 13.526 0 0 1 -13.847-13.807 13.526 13.526 0 0 1 13.847-13.806c6.864 0 11.974 4.485 13.065 11.271h-5.773c-.937-3.783-3.472-5.889-7.292-5.889-4.719 0-8.151 3.393-8.151 8.424s3.43 8.425 8.151 8.425c3.82 0 6.355-2.107 7.292-5.89z"/><path d="m61.332 14.936a13.865 13.865 0 1 1 -13.885-13.806 13.75 13.75 0 0 1 13.885 13.806zm-5.733 0a8.16 8.16 0 1 0 -16.3 0 8.16 8.16 0 1 0 16.3 0z"/><path d="m91.077 28.2h-4.368l-13.924-16.111v16.111h-5.655v-26.524h4.251l14.041 16.536v-16.536h5.655z"/><path d="m110 6.824v21.376h-5.655v-21.376h-8.855v-5.148h23.363v5.148z"/><path d="m125.738 23.087-2.066 5.11h-6.007l11.428-26.677h5.3l11.392 26.68h-5.967l-2.067-5.11zm5.968-14.82-3.9 9.712h7.878z"/><path d="m168.838 17.471h5.771c-1.091 6.787-6.2 11.272-13.065 11.272a13.526 13.526 0 0 1 -13.844-13.807 13.526 13.526 0 0 1 13.844-13.806c6.864 0 11.974 4.485 13.065 11.271h-5.771c-.937-3.783-3.472-5.889-7.294-5.889-4.719 0-8.151 3.393-8.151 8.424s3.432 8.425 8.151 8.425c3.822 0 6.356-2.107 7.294-5.89z"/><path d="m192.3 6.824v21.376h-5.655v-21.376h-8.854v-5.148h23.362v5.148z"/></g></svg>