<svg height="30" viewBox="0 0 183 30" width="183" xmlns="http://www.w3.org/2000/svg"><g fill="#e60012"><path d="m25.944 28.2h-5.655v-10.378h-11.856v10.378h-5.656v-26.524h5.656v11h11.856v-11h5.655z"/><path d="m38.49 28.2h-5.655v-26.524h5.655z"/><path d="m66.379 9.788h-5.579c-.351-2.34-1.833-3.978-5.07-3.978-2.769 0-4.6 1.209-4.6 3.276 0 1.794 1.365 2.574 3.783 3.081l3.276.663c5.07 1.053 8.073 3.043 8.073 7.488 0 5.071-4.173 8.425-10.53 8.425-6.4 0-11.154-3.432-11.623-9.322h5.617c.429 2.653 2.769 4.408 6.318 4.408 2.769 0 4.368-1.092 4.368-2.887 0-1.091-.624-2.262-3.315-2.73l-4.329-.858c-5.268-1.054-7.568-3.627-7.568-7.761 0-5.109 4.056-8.5 10.14-8.5 4.448-.002 10.415 1.831 11.039 8.695z"/><path d="m84.775 6.824v21.376h-5.655v-21.376h-8.853v-5.148h23.361v5.148z"/><path d="m124.274 14.936a13.865 13.865 0 1 1 -13.884-13.806 13.75 13.75 0 0 1 13.884 13.806zm-5.733 0a8.16 8.16 0 1 0 -16.3 0 8.16 8.16 0 1 0 16.3 0z"/><path d="m135.728 19.967v8.233h-5.655v-26.524h11.31c6.123 0 10.531 3.588 10.531 9.126a8.675 8.675 0 0 1 -5.032 8l6.747 9.4h-6.747l-5.811-8.23zm5.46-5.187c2.847 0 5.148-1.56 5.148-3.978 0-2.457-2.3-3.978-5.148-3.978h-5.46v7.956z"/><path d="m170.406 19.655v8.545h-5.694v-8.545l-10.569-17.979h6.24l7.137 12.285 7.137-12.285h6.24z"/></g></svg>