<svg height="52" viewBox="0 0 140 52" width="140" xmlns="http://www.w3.org/2000/svg"><g fill="#e60012"><path d="m32.016 11.351h-2.157v-5.491l-2.53 3.973h-1.265v-.015l-2.544-4 .03 5.535h-2.173v-10.121h1.548l3.775 5.953 3.78-5.953h1.532z"/><path d="m44.429 6.292a5.29 5.29 0 1 1 -5.3-5.268 5.246 5.246 0 0 1 5.3 5.268zm-2.187 0a3.113 3.113 0 1 0 -6.22 0 3.113 3.113 0 1 0 6.22 0z"/><path d="m48.494 8.211v3.14h-2.158v-10.119h4.316c2.336 0 4.018 1.369 4.018 3.482a3.309 3.309 0 0 1 -1.92 3.051l2.574 3.586h-2.574l-2.217-3.14zm2.083-1.979c1.087 0 1.965-.6 1.965-1.518s-.878-1.514-1.965-1.514h-2.083v3.032z"/><path d="m59.225 11.351h-2.157v-10.119h2.157z"/><path d="m66.592 3.2v8.154h-2.158v-8.154h-3.378v-1.968h8.914v1.968z"/><path d="m72.352 9.4-.788 1.949h-2.292l4.36-10.178h2.024l4.344 10.18h-2.276l-.789-1.951zm2.277-5.655-1.488 3.707h3.006z"/><path d="m23.534 29.432h-2.157v-10.118h2.157z"/><path d="m34.815 29.432h-1.667l-5.312-6.145v6.145h-2.158v-10.118h1.622l5.357 6.309v-6.309h2.158z"/><path d="m41.127 19.314a5.071 5.071 0 1 1 0 10.118h-3.944v-10.118zm0 8.139a3.091 3.091 0 1 0 0-6.175h-1.786v6.175z"/><path d="m56.946 24.834c0 3.021-1.815 4.822-4.583 4.822-2.753 0-4.553-1.8-4.553-4.822v-5.52h2.143v5.535c0 1.682.967 2.8 2.41 2.8 1.473 0 2.441-1.116 2.441-2.8v-5.535h2.142z"/><path d="m66.785 22.409h-2.128a1.708 1.708 0 0 0 -1.935-1.518c-1.056 0-1.756.461-1.756 1.25 0 .685.521.982 1.444 1.176l1.249.253c1.935.4 3.081 1.16 3.081 2.857 0 1.934-1.592 3.214-4.018 3.214s-4.255-1.31-4.434-3.557h2.143a2.174 2.174 0 0 0 2.41 1.682c1.057 0 1.667-.417 1.667-1.1 0-.417-.238-.863-1.265-1.042l-1.652-.324c-2.009-.4-2.887-1.384-2.887-2.962 0-1.949 1.548-3.243 3.869-3.243 1.697-.004 3.973.695 4.212 3.314z"/><path d="m73.066 21.278v8.154h-2.157v-8.154h-3.378v-1.964h8.913v1.964z"/><path d="m79.764 26.293v3.139h-2.158v-10.118h4.316c2.336 0 4.018 1.369 4.018 3.482a3.308 3.308 0 0 1 -1.92 3.05l2.574 3.586h-2.574l-2.22-3.139zm2.083-1.979c1.087 0 1.965-.6 1.965-1.518 0-.938-.878-1.518-1.965-1.518h-2.083v3.036z"/><path d="m89.9 29.432h-2.158v-10.118h2.158z"/><path d="m94.052 23.465h4.732v1.95h-4.732v2.068h5.342v1.949h-7.494v-10.118h7.5v1.949h-5.348z"/><path d="m109.128 22.409h-2.128a1.708 1.708 0 0 0 -1.934-1.518c-1.057 0-1.756.461-1.756 1.25 0 .685.521.982 1.443 1.176l1.25.253c1.935.4 3.08 1.16 3.08 2.857 0 1.934-1.592 3.214-4.017 3.214-2.441 0-4.256-1.31-4.435-3.557h2.143a2.175 2.175 0 0 0 2.41 1.682c1.057 0 1.667-.417 1.667-1.1 0-.417-.238-.863-1.264-1.042l-1.652-.327c-2.009-.4-2.887-1.384-2.887-2.962 0-1.949 1.548-3.243 3.869-3.243 1.696-.001 3.973.698 4.211 3.317z"/><path d="m116.5 29.432h-2.158v-10.118h2.158z"/><path d="m127.4 29.432h-1.666l-5.313-6.145v6.145h-2.157v-10.118h1.622l5.357 6.309v-6.309h2.157z"/><path d="m137 25.34h2.2a4.888 4.888 0 0 1 -4.985 4.3 5.268 5.268 0 1 1 0-10.535 4.888 4.888 0 0 1 4.985 4.3h-2.2a2.689 2.689 0 0 0 -2.782-2.247 3.028 3.028 0 0 0 -3.11 3.214 3.028 3.028 0 0 0 3.11 3.214 2.689 2.689 0 0 0 2.782-2.246z"/><path d="m78.036 51.154h-76.993v-28.684h7.913v21.198h69.08z"/></g></svg>