<svg height="30" viewBox="0 0 169 30" width="169" xmlns="http://www.w3.org/2000/svg"><g fill="#e60012"><path d="m30.663 28.2h-5.655v-14.395l-6.63 10.414h-3.316v-.039l-6.668-10.492.077 14.512h-5.694v-26.524h4.056l9.907 15.6 9.906-15.6h4.017z"/><path d="m43 23.087-2.065 5.113h-6.006l11.427-26.68h5.3l11.393 26.68h-5.967l-2.067-5.11zm5.967-14.82-3.9 9.712h7.878z"/><path d="m72.97 22.308v5.892h-5.656v-26.524h5.656v12.987l11.544-12.987h6.708l-10.3 11.661 11.353 14.863h-7.02l-8.155-10.573z"/><path d="m102.047 28.2h-5.655v-26.524h5.655z"/><path d="m132.822 28.2h-4.368l-13.924-16.111v16.111h-5.655v-26.524h4.251l14.041 16.536v-16.536h5.655z"/><path d="m165.937 28.2h-4.329l-.312-3.666a10.225 10.225 0 0 1 -8.815 4.212 13.46 13.46 0 0 1 -13.881-13.459 13.7 13.7 0 0 1 14.038-14.157c5.85 0 11.466 3.237 12.987 9.828h-6.006c-1.326-3.7-4.524-4.485-6.9-4.485-4.914 0-8.424 3.354-8.424 8.776a7.918 7.918 0 0 0 8.23 8.112 7.418 7.418 0 0 0 7.332-4.954h-7.839v-4.992h13.923z"/></g></svg>