<svg height="30" viewBox="0 0 124 30" width="124" xmlns="http://www.w3.org/2000/svg"><g fill="#e60012"><path d="m26.724 28.2h-4.368l-13.923-16.111v16.111h-5.656v-26.524h4.251l14.041 16.536v-16.536h5.655z"/><path d="m39.27 12.557h12.4v5.11h-12.4v5.42h14v5.113h-19.656v-26.524h19.657v5.109h-14z"/><path d="m88.515 28.353h-5.5l-5.81-16.888-5.772 16.888h-5.533l-8.664-26.677h5.928l5.578 17.863 6.123-17.863h4.719l6.123 17.863 5.577-17.863h5.928z"/><path d="m122.234 9.788h-5.577c-.351-2.34-1.833-3.978-5.07-3.978-2.769 0-4.6 1.209-4.6 3.276 0 1.794 1.365 2.574 3.783 3.081l3.276.663c5.07 1.053 8.073 3.043 8.073 7.488 0 5.071-4.173 8.425-10.53 8.425-6.4 0-11.154-3.432-11.623-9.322h5.617c.429 2.653 2.769 4.408 6.318 4.408 2.769 0 4.368-1.092 4.368-2.887 0-1.091-.624-2.262-3.315-2.73l-4.329-.858c-5.266-1.053-7.566-3.627-7.566-7.761 0-5.109 4.056-8.5 10.14-8.5 4.444-.002 10.411 1.831 11.035 8.695z"/></g></svg>