<svg height="30" viewBox="0 0 181 30" width="181" xmlns="http://www.w3.org/2000/svg"><g fill="#e60012"><path d="m8.433 19.967v8.233h-5.656v-26.524h11.31c6.124 0 10.531 3.588 10.531 9.126a8.674 8.674 0 0 1 -5.031 8l6.747 9.4h-6.747l-5.812-8.23zm5.46-5.187c2.846 0 5.148-1.56 5.148-3.978 0-2.457-2.3-3.978-5.148-3.978h-5.46v7.956z"/><path d="m36.625 12.557h12.4v5.11h-12.4v5.42h14v5.113h-19.655v-26.524h19.657v5.109h-14z"/><path d="m76.277 17.471h5.772c-1.092 6.787-6.2 11.272-13.066 11.272a13.526 13.526 0 0 1 -13.844-13.807 13.526 13.526 0 0 1 13.844-13.806c6.865 0 11.974 4.485 13.066 11.271h-5.772c-.936-3.783-3.471-5.889-7.294-5.889-4.718 0-8.151 3.393-8.151 8.424s3.433 8.425 8.151 8.425c3.823 0 6.358-2.107 7.294-5.89z"/><path d="m93.5 19.967v8.233h-5.652v-26.524h11.309c6.124 0 10.531 3.588 10.531 9.126a8.674 8.674 0 0 1 -5.031 8l6.747 9.4h-6.747l-5.811-8.23zm5.46-5.187c2.847 0 5.148-1.56 5.148-3.978 0-2.457-2.3-3.978-5.148-3.978h-5.46v7.956z"/><path d="m139.238 16.146c0 7.916-4.759 12.636-12.012 12.636-7.215 0-11.935-4.72-11.935-12.636v-14.47h5.616v14.508c0 4.407 2.535 7.333 6.319 7.333 3.861 0 6.4-2.926 6.4-7.333v-14.508h5.616z"/><path d="m151.526 28.2h-5.655v-26.524h5.655z"/><path d="m170.387 6.824v21.376h-5.656v-21.376h-8.853v-5.148h23.362v5.148z"/></g></svg>