<svg height="30" viewBox="0 0 181 30" width="181" xmlns="http://www.w3.org/2000/svg"><g fill="#fff"><path d="m8.433 19.968v8.232h-5.656v-26.524h11.31c6.124 0 10.531 3.589 10.531 9.127a8.675 8.675 0 0 1 -5.031 7.997l6.747 9.4h-6.747l-5.812-8.229zm5.46-5.188c2.847 0 5.148-1.559 5.148-3.977 0-2.457-2.3-3.979-5.148-3.979h-5.46v7.956z"/><path d="m36.625 12.558h12.4v5.109h-12.4v5.421h14v5.112h-19.655v-26.524h19.657v5.109h-14z"/><path d="m76.277 17.472h5.772c-1.091 6.786-6.2 11.271-13.065 11.271a13.526 13.526 0 0 1 -13.845-13.806 13.526 13.526 0 0 1 13.845-13.807c6.864 0 11.974 4.485 13.065 11.271h-5.772c-.936-3.783-3.471-5.888-7.293-5.888-4.719 0-8.151 3.392-8.151 8.424s3.432 8.424 8.151 8.424c3.822 0 6.357-2.106 7.293-5.889z"/><path d="m93.5 19.968v8.232h-5.652v-26.524h11.31c6.123 0 10.53 3.589 10.53 9.127a8.675 8.675 0 0 1 -5.031 7.995l6.747 9.4h-6.747l-5.811-8.229zm5.46-5.188c2.847 0 5.148-1.559 5.148-3.977 0-2.457-2.3-3.979-5.148-3.979h-5.46v7.956z"/><path d="m139.238 16.146c0 7.916-4.758 12.636-12.012 12.636-7.215 0-11.934-4.72-11.934-12.636v-14.47h5.616v14.509c0 4.407 2.535 7.332 6.318 7.332 3.861 0 6.4-2.925 6.4-7.332v-14.509h5.616z"/><path d="m151.526 28.2h-5.655v-26.524h5.655z"/><path d="m170.387 6.824v21.376h-5.656v-21.376h-8.853v-5.148h23.362v5.148z"/></g></svg>