<svg height="126" viewBox="0 0 459 126" width="459" xmlns="http://www.w3.org/2000/svg"><g fill="#fff"><path d="m13.9 47.54h-4.9l.05-18.25.1-6.35c-.2.35-2.55 4.55-3 4.55a.179.179 0 0 1 -.15 0 23.389 23.389 0 0 0 -4.3-2.8c5.55-5.5 10.2-16.76 11.5-22.41.05 0 6.2 1.4 6.2 2.35 0 .35-.55.65-1.2.65a2.026 2.026 0 0 1 -.55 0c-.75 1.95-2 5.2-3.7 8.8.2 0 .35.05.45.05.65.16.95.35.95.6s-.55.75-1.4 1v2.41zm33.1-30.95h-12.75v8.85h11v4.65h-11v10.75h13.75v4.6h-32v-4.6h13.4v-10.75h-10.6v-4.65h10.6v-8.85h-11.4v-4.59h16.3c-4.15-3.75-10.55-6.2-10.55-6.2l3.1-3.55a43.88 43.88 0 0 1 10.65 5.88l-3.1 3.87h12.6z"/><path d="m90.76 13.13c-.05.2-.05.35-.25.35-3.55.65-7.35 1.2-11 1.65 0 2.11.1 4.21.15 6.16a44.169 44.169 0 0 0 9.75-2.45v4.85c0 .15 0 .3-.2.35a73.1 73.1 0 0 1 -9.35 1.75c.15 2.8.35 5.35.45 7.4a39.69 39.69 0 0 1 13.69 6.81l-4.35 3.7a.5.5 0 0 1 -.15.05c-.05 0-.1-.05-.2-.1a27.909 27.909 0 0 0 -8.8-5.7c-.75 5-4.95 7.2-9.45 7.2-5.15 0-10.35-3-10.35-7 0-3.6 4.35-6.2 11.2-6.2a29.927 29.927 0 0 1 3.7.25l-.3-6c-1 .1-1.9.15-2.75.15-.55 0-1.1.05-1.6.05-5.45 0-8.7-1.25-8.7-3.35 0-1.65 1.4-2.71 3.25-4.1l4.2.75c-1.8 1.45-1.9 1.5-1.9 1.7 0 .4.85.65 3 .65.5 0 1.1-.05 1.75-.05a24.514 24.514 0 0 0 2.5-.15c-.1-2.05-.15-4.11-.2-6.26a83.835 83.835 0 0 1 -8.6.61 18.554 18.554 0 0 1 -6.55-1s-.7-4.45-.8-4.7v-.25c0-.2 0-.3.2-.3a.539.539 0 0 1 .25.05 23.16 23.16 0 0 0 8.1 1.45c.35 0 2.25 0 7.3-.5v-.95c0-2.15-.1-4.5-.2-7.1 0 0 3.95.2 5.55.35.7.05 1.1.3 1.1.55s-.4.6-1.35.9c-.1 1.5-.2 4-.25 5.75 3.6-.45 7.55-1.05 11.35-1.85zm-19.9 23c-.55 0-5.3 0-5.3 2.15 0 1.7 3.25 2.4 5.15 2.4 2.65 0 4.7-1.25 5.05-3.9a19.324 19.324 0 0 0 -4.9-.69z"/><path d="m110.21 24.49c0 4.9.75 9.35 5.05 11.6a3.134 3.134 0 0 0 1.35.4c1.8 0 3.15-2.45 5.45-8.75a39.723 39.723 0 0 0 3.45 5.85.379.379 0 0 1 .1.25v.2c-3 6-5.8 8.25-8.7 8.25a8 8 0 0 1 -3.75-1.1c-8-4.35-8-13.15-8-23.91v-5c0-.35 0-.3.15-.3h.2c.75.05 4.5.5 5.75.7.6.1.85.35.85.6s-.4.65-1.3.8c-.4 3.66-.6 8.01-.6 10.41zm23.85-12.91c5.95 5.16 10.85 14.86 10.85 21.51v.55l-5.25 2.36a.377.377 0 0 1 -.2 0c-.15 0-.2-.1-.2-.35v-.9c0-7.15-4-15.91-10.15-21.66z"/><path d="m158.86 45a25.666 25.666 0 0 1 -2.6-12.1c0-.6.05-1.25.05-1.85.45-10.6 2.95-18.61 3.25-24.61 0-.25.05-.35.2-.35a.377.377 0 0 1 .2 0c.25 0 4.1 1 5.5 1.5.5.15.8.45.8.7s-.4.6-1.45.65c-.85 4.2-3.7 13.36-4.05 19.86a9.007 9.007 0 0 0 -.15 1.75c0 .95.15 1.4.3 1.4.3 0 4-9.4 4-9.4a39.559 39.559 0 0 0 1.9 4.6 77.146 77.146 0 0 0 -3.35 10.1 18.787 18.787 0 0 0 -.46 3.75 16.053 16.053 0 0 0 .2 2.6c0 .2-.05.4-.25.45zm17.14-13.41c-1.6 1.75-1.65 2.1-1.65 2.45 0 1.7 3.4 3.2 8.85 3.15a30.809 30.809 0 0 0 10.3-2 51.171 51.171 0 0 0 -.7 5.6.111.111 0 0 1 -.1.1 42.819 42.819 0 0 1 -9.7 1.25c-8.25 0-13.55-3.4-13.55-7.35a6.589 6.589 0 0 1 2.3-4.45zm15.15-15.21a.28.28 0 0 1 -.2.3 66.032 66.032 0 0 1 -10.6.85 31.547 31.547 0 0 1 -8.95-1l.2-4.5a.23.23 0 0 1 .2-.25h.1a28.793 28.793 0 0 0 7.55.85 62.8 62.8 0 0 0 11.7-1.2z"/><path d="m227.72 18.09c.2 11.7 7.15 21 21.35 24.85 0 0-4.35 2.35-5.65 3.8a.27.27 0 0 1 -.25.15.712.712 0 0 1 -.3-.1 30.3 30.3 0 0 1 -17.15-16.6c-4.85 12.9-17.5 17.15-18.05 17.15-.1 0-.15-.05-.25-.15-1.1-1.3-5.4-3.7-5.4-3.7 16-3.6 20.75-15 20.75-22.25 0-2.8-.1-4.9-.2-6 4.75.21 6.7.3 6.7 1 0 .29-.5.64-1.45.85 0 .15-.05.5-.1 1zm-10.25-4.46c-4.3 8.56-7.45 11.16-7.55 11.16a.379.379 0 0 1 -.2-.05 29.2 29.2 0 0 0 -5.4-1.6c6-5.15 10.35-13.66 12-20.76.35.05 4.5 1.2 5.5 1.55.55.2.8.45.8.7s-.5.65-1.35.65h-.27c-.35.9-.85 2.25-1.5 3.85l22.3-.1c.25 0 .6-.35.95-.35s3.8 2.35 3.8 3c0 .3-.35.45-1 .65 0 0-3.9 8.36-8 12.61-.1.1-.15.15-.25.15a.181.181 0 0 1 -.15-.05 28.541 28.541 0 0 0 -5.3-1.25 38.4 38.4 0 0 0 7.7-10.21z"/><path d="m277.39 15.28a11.939 11.939 0 0 1 1.85-.15c5.1 0 7.1 3.4 7.1 10.31a37.488 37.488 0 0 1 -1.65 11c-1.75 5.1-5.85 7.45-9.75 7.45-2.85 0-5.3-1.25-5.3-1.9a64.494 64.494 0 0 0 -.75-6.5 8.228 8.228 0 0 0 5.95 3c2.05 0 4-1.1 5-3.85a33.807 33.807 0 0 0 1.45-9.7c0-3.2-.35-5.31-3.25-5.31-.5 0-2.1.21-2.7.31-3.2 8-6.85 15.35-11.55 24.75l-5.85-.95a198.832 198.832 0 0 0 11.7-22.74c-.8.15-1.6.35-2.4.55a31.887 31.887 0 0 1 -6.7.8l-1.54-4.86a2.045 2.045 0 0 1 -.1-.36c0-.14.1-.14.25-.14h.2c1 .1 2.15.14 3.45.14a42.708 42.708 0 0 0 8.65-.95 47.009 47.009 0 0 0 2.5-11s4.75.8 5.95 1.15c.6.15.9.4.9.7s-.65.75-1.65.8c-.35 1.45-1.25 4.8-2.15 7.55zm20.9 16.86a.834.834 0 0 1 -.25.1c-.1 0-.15-.1-.2-.3-.5-4.9-3.2-10.15-10.3-14.16-.25-.15-.35-.29-.35-.34a.666.666 0 0 1 .4-.35l4.3-2c6.45 4.16 10.8 9.36 11.2 14.56z"/><path d="m355.42 19.49c-.05.14-.1.2-.3.2-3.7 0-7.35.15-10.85.44a49.96 49.96 0 0 1 -.9 6.86c-1.15 5-4.55 7-7.9 7a8.545 8.545 0 0 1 -3.7-.85.73.73 0 0 1 -.3-.45 38.28 38.28 0 0 0 -1.4-5.6 9.554 9.554 0 0 0 5.1 2.05c3.05 0 3.8-2.65 4.25-8.4-4.35.55-8.4 1.3-11.95 2-.05 2.1-.1 4.1-.1 5.75 0 .8-.05 1.55-.05 2.25 0 4.25.7 7.8 8.65 7.8a56.224 56.224 0 0 0 11.85-1.65 44.86 44.86 0 0 0 -1.3 5.7.33.33 0 0 1 -.35.3 74.21 74.21 0 0 1 -9 .6c-13.8 0-14.6-6.65-14.6-13.6v-1.55c0-1.35.05-2.9.05-4.5-.7.15-1.35.35-1.95.5-3.2.85-6.8 1.6-9.05 1.95l-1.75-4.8a1.534 1.534 0 0 1 -.1-.4c0-.15.1-.2.4-.25a60.737 60.737 0 0 0 12.45-1.71 100.129 100.129 0 0 0 -.5-10.8s4.25.15 6 .35c.7.1.95.3.95.55s-.6.8-1.4.95c0 1.9-.05 4.85-.1 8 3.6-.66 7.65-1.35 12.1-2 .05-1.46.1-2.91.1-4.26 0-2.3-.1-4.35-.15-5.7 0 0 4.05.35 5.8.6.7.1 1 .35 1 .6s-.6.75-1.45.9c-.15 2-.25 4.6-.4 7.2 3.55-.4 7.35-.75 11.25-1z"/><path d="m389.33 12c-2.25.65-4.9 1.35-7.35 1.9-2.9 7.86-7.75 17.11-10.9 23.06l-5.55-1.15c2.8-4.4 8.15-13.4 11-20.71l-.9.16a21.452 21.452 0 0 1 -3.9.39 14.455 14.455 0 0 1 -4.55-.75l-.85-4.55a2.127 2.127 0 0 0 -.05-.25c0-.2.1-.25.2-.25a1.013 1.013 0 0 1 .35.05 18.31 18.31 0 0 0 5.9 1.15 24.491 24.491 0 0 0 5-.65 30.822 30.822 0 0 0 1.15-7.15c1.15.15 4.55.45 5.5.6s1.1.4 1.1.65-.55.75-1.4.85c-.2 1-.55 2.35-.9 3.7 2-.6 4.1-1.25 5.85-1.9zm12.2 31.21c-.1.05-.15.1-.2.1a.381.381 0 0 1 -.2-.1 34.886 34.886 0 0 0 -6.5-4.95c-.9 4.15-5.1 6.65-9.55 6.65-5 0-9.3-3.2-9.3-6.85s3.85-6.4 9.7-6.4a21.8 21.8 0 0 1 4.5.45c-.1-2.15-.25-4.55-.25-6.8a22.877 22.877 0 0 1 .3-4.35s3.9.3 5.1.5c.7.15 1 .4 1 .65s-.5.7-1.35.85a19.493 19.493 0 0 0 -.45 4.55c0 2 .2 4 .3 5.75a41.812 41.812 0 0 1 10.8 6.45zm-16.35-7.5c-2.95 0-4.75 1.1-4.75 2.3s2 2.45 4.5 2.45 4.8-1.35 5.15-3.85a14.448 14.448 0 0 0 -4.9-.92zm18.2-15.9c-.05.15-.1.25-.2.25s-.1 0-.2-.1c-2.15-1.91-6.05-2.85-10.65-2.85h-2.2c-.4 0-.5 0-.5-.2v-.15s.75-3.85.75-4.05c.9-.05 1.85-.1 2.85-.1 4.45 0 9.35.65 11.65 2.75z"/><path d="m421.69 24.49c0 4.9.75 9.35 5.05 11.6a3.134 3.134 0 0 0 1.35.4c1.8 0 3.15-2.45 5.45-8.75a39.782 39.782 0 0 0 3.46 5.85.379.379 0 0 1 .1.25v.2c-3.05 6-5.8 8.25-8.7 8.25a8 8 0 0 1 -3.75-1.1c-8-4.35-8-13.15-8-23.91 0-4.25-.05-4.65-.05-5s.05-.3.15-.3h.2c.75.05 4.5.5 5.75.7.6.1.85.35.85.6s-.4.65-1.3.8c-.36 3.66-.56 8.01-.56 10.41zm23.85-12.91c5.95 5.16 10.85 14.86 10.85 21.51v.55l-5.25 2.36a.377.377 0 0 1 -.2 0c-.15 0-.2-.1-.2-.35v-.9c0-7.15-4-15.91-10.15-21.66z"/><path d="m65.88 85.68c.05 4.31.2 8 .2 12 0 18.8-5.2 26.15-5.6 26.15a.181.181 0 0 1 -.15-.05 25.863 25.863 0 0 0 -5.15-1.5c6-6.75 6.25-19.25 6.25-24.85 0-4.61-.15-10.31-.5-15.91h35.41c-.15 2.8-.45 5.8-.55 9-.05 2.61-.15 5.16-.15 7.71 0 12.65 2.2 18.65 3 18.65 1 0 1.25-6.4 1.3-7.2a26.788 26.788 0 0 0 3.45 4.3c.15.1.15.25.15.45-.75 6-2.85 8.85-5 8.85-3.65 0-7.3-7-7.3-27.26 0-2 0-4 .1-5.79 0 0 .2-4.21.2-4.56zm22.41 25.11h-3.75v-1.15h-4.06v6l4.36-.8c-1-1.3-1.65-2.1-1.65-2.1l3.45-1.45s4.65 5.2 6.5 9.4l-3.75 2.31a23.764 23.764 0 0 0 -2.4-5 186.188 186.188 0 0 1 -19.1 3.75c0 1-.31 1.55-.61 1.55s-.55-.3-.75-.8c-.4-.9-1.85-4.85-1.85-4.85 4.3-.35 8.36-.9 11.71-1.4v-6.7h-3.91v2.75h-3.55v-15.81h7.46v-3.6c-2.25.25-4.7.5-7.11.6-.25 0-.3 0-.39-.21a22.2 22.2 0 0 0 -2.56-3.54c11.9 0 18.26-2 19.76-2.55 0 0 1.9 2.25 2.85 3.55a.93.93 0 0 1 .2.54c0 .25-.15.41-.5.41a3.306 3.306 0 0 1 -1.45-.55s-2.75.6-6.71 1.19v4.16h7.81zm-15.81-10.79v6h3.91v-6zm8 0v6h4.06v-6z"/><path d="m146.81 100.19h-4.95v-1.7h-9.15c-.35 1.35-.9 3.8-1.5 5.75h18.35v20h-5.05v-2.8h-26v3.25h-4.75v-20.4h12.85a53.883 53.883 0 0 0 1.39-5.8h-6.95v2h-4.8v-18.26h30.55zm-28.35 8.35v8.46h26.05v-8.5zm2.6-22.05v7.9h20.8v-7.9z"/><path d="m195.26 103.79h-10.61v3.7h17.76v4h-17.76v7.05h3.76a35.412 35.412 0 0 0 3.05-6.35s3.6.85 4.8 1.2c.55.15.85.45.85.7s-.55.65-1.8.7a36.8 36.8 0 0 1 -2.05 3.75h11v4.15h-43.36v-4.15h10.91a31.036 31.036 0 0 0 -3.11-5l4.16-1.45a57.005 57.005 0 0 1 3.85 6.4h3.4v-7.05h-17.11v-4h17.11v-3.7h-10.11v-3.1a63.187 63.187 0 0 1 -7 1.9.178.178 0 0 1 -.15-.1c-.75-1.25-4.1-3.75-4.1-3.75a54.006 54.006 0 0 0 20.45-6.8 56.743 56.743 0 0 1 -4.5-4.16l3.56-2.4a28.941 28.941 0 0 0 4.44 4.15 38.986 38.986 0 0 0 4.61-4s2.9 1.89 3.9 2.59c.4.3.55.55.55.75s-.25.36-.7.36a4.515 4.515 0 0 1 -1-.16l-3.6 3c6.4 3.6 13.8 5.15 20.35 5.85a27.361 27.361 0 0 0 -4.15 4.1.27.27 0 0 1 -.25.15h-.1c-2.55-.55-4.85-1.15-7-1.8zm-30.46-12.65a.4.4 0 0 1 -.2-.11 26.739 26.739 0 0 0 -3.95-3.29 33.549 33.549 0 0 0 15.35-8.31s2.71 1.9 3.61 2.65a1.239 1.239 0 0 1 .5.8c0 .3-.25.5-.75.5a4.721 4.721 0 0 1 -1.21-.25 37.472 37.472 0 0 1 -13.35 8.01zm28.71 8.6a44.1 44.1 0 0 1 -10.7-5.1 50.488 50.488 0 0 1 -10.16 5.1zm-5.15-20.26s5.9 5.1 16.3 7.8a30.9 30.9 0 0 0 -3.9 3.66.238.238 0 0 1 -.15.09h-.15c-8.35-2.36-15.25-8.81-15.25-8.81z"/><path d="m222.31 124.64a47.648 47.648 0 0 0 -10.65-10l3.55-3.25a60.415 60.415 0 0 1 11.3 8.8z"/><path d="m252.85 122.34h-.1a17.417 17.417 0 0 0 -4.25-.65c3.1-5.85 3.8-13.25 3.85-14.5 5 .85 5 .85 5 1.4 0 .35-.45.7-1.34.8-.86 6.4-2.56 12.95-3.16 12.95zm30.36-42.16c.65.15 1.1.4 1.1.7s-.4.55-1.5.75c1.7 2.8 6.65 10.11 13.7 14a27.084 27.084 0 0 0 -4.8 2.9.381.381 0 0 1 -.2.1 11.72 11.72 0 0 1 -2.25-1.9v2.75h-16.4v-2.6a15.2 15.2 0 0 1 -3.21 2.75.168.168 0 0 1 -.14-.1 7.009 7.009 0 0 0 -1.3-.9 34.744 34.744 0 0 1 1.9 5.85l-3.55 1.6c-.2-1-.45-2.2-.8-3.45-.95.2-2.15.4-3.61.65l.1 21.25h-4.55l.11-20.65c-1.91.3-4 .55-6 .8 0 .75-.3 1.45-.65 1.45-.55 0-.75-.65-1.95-5.5 1.2 0 2.45 0 3.7-.1 1.09-1.24 2.09-2.64 3.09-4.04a35.59 35.59 0 0 0 -6.35-6.3l2.1-3.36c.55.41 1.05.86 1.6 1.3a48.848 48.848 0 0 0 4.55-9c.45.15 5.16 2 5.16 2.9 0 .3-.35.5-.91.5a4.028 4.028 0 0 1 -.69-.1c-.35.6-3.26 5.75-5.26 8.45l2.15 2.31a74.646 74.646 0 0 0 5.26-9.06c.2.1 3.35 2 4.25 2.61a1.1 1.1 0 0 1 .54.8c0 .25-.25.5-.84.5a3.684 3.684 0 0 1 -.7-.11c-.46.61-5 7.31-8.91 12.36 2.75-.25 5.2-.5 6.76-.75a23.019 23.019 0 0 0 -2.21-4.54l3.26-1.35c.2.35.7 1.2 1.25 2.3 8.4-6.37 11.99-16.77 11.99-16.77zm-16.7 26.51a99.628 99.628 0 0 1 3.64 11.85l-4.09 1.7a64.151 64.151 0 0 0 -3.06-12.5zm24.85 17.4h-4.5v-2.65h-11.1v2.9h-4.36v-19.75h20zm-3.36-28.65a61.594 61.594 0 0 1 -7.2-9.61 52.244 52.244 0 0 1 -6.55 9.61zm-12.2 13.35v8.4h11.1v-8.4z"/><path d="m312.79 100.74a32.18 32.18 0 0 0 -8.5-5.6l2.9-3.75a44.99 44.99 0 0 1 8.5 5.1zm37 2.35h-20.55a26.209 26.209 0 0 1 -1.75 2.55h20.71c-.15 14.8-3.15 18.55-10.35 18.55h-1.7c-.25 0-.4-.1-.45-.25a16.7 16.7 0 0 0 -1.85-3.65 22.641 22.641 0 0 1 -6.15 4.65.275.275 0 0 1 -.25-.1 21.386 21.386 0 0 0 -4.76-1.95 27.1 27.1 0 0 0 14.21-13.89h-3.7c-5.3 8.5-13.16 12.9-13.76 12.9a.258.258 0 0 1 -.2-.1c-.84-.9-4.55-2.25-4.55-2.25a28.109 28.109 0 0 0 14-10.55h-4a27.131 27.131 0 0 1 -6 5.15.394.394 0 0 1 -.21 0 14.242 14.242 0 0 0 -3.4-1.5c-1.3 2.65-2.9 5.7-5.05 9.25a2.07 2.07 0 0 1 .3 1c0 .35-.15.6-.45.6a.662.662 0 0 1 -.4-.1c-1.55-.75-4.95-2.8-4.95-2.8 3.85-3.85 8.15-13.8 9.15-16.9a27.258 27.258 0 0 0 3.35 4 .28.28 0 0 1 .16.25.259.259 0 0 1 -.06.2q-.66 1.57-1.5 3.3a29.548 29.548 0 0 0 9.31-8.3h-8v-4h32.9zm-34.5-13.15a30 30 0 0 0 -7.9-6.45l3.2-3.31a40.763 40.763 0 0 1 8 5.9zm28.86 7.4h-4.35v-.9h-13.4v1h-4.25v-16.51h22zm-17.75-12.81v2.55h13.4v-2.55zm0 5.8v2.67h13.4v-2.7zm14.85 18.67a37.516 37.516 0 0 1 -6.4 10.15 17.836 17.836 0 0 0 3.4.4c2.75 0 5-1.35 5.4-10.55z"/><path d="m400.06 95.24h-4.2v-1.6h-8.55v1.8h-4c-.5.8-1.1 1.75-1.85 2.75h21.75v4.15l-13.35-.1c3 2.3 7.7 4.85 15.45 6.55a25.671 25.671 0 0 0 -4.1 3.75.269.269 0 0 1 -.2.15h-.15a11.253 11.253 0 0 0 -1.2-.4l.1 11.85h-4.35v-1.9h-8.05v2.15h-4.1v-16.9h7a35.676 35.676 0 0 1 -6.2-5.25h-5.75a49.011 49.011 0 0 1 -6 5.25h6.59v16.65h-4.14v-1.9h-7.26v2.15h-4.3l.1-11.55c-.55.2-1.05.45-1.6.65h-.2a.381.381 0 0 1 -.2-.1 26.886 26.886 0 0 0 -4.25-3.3 42.081 42.081 0 0 0 15.45-7.85l-13.6.1v-4.15h17.25c.75-1 1.46-1.9 2.11-2.91h-3.5v-1.59h-8.31v1.8h-4.25v-14.56h16.7v13.21c.25-.45.5-.9.71-1.36.15 0 2.2.61 3.6 1.06v-12.91h16.85zm-33.61-10.56v5.46h8.31l.05-5.46zm1.05 26.51v7.15h7.26v-7.15zm19.81-26.51v5.4h8.55v-5.4zm.05 26.51v7.15h8.05v-7.15z"/></g></svg>