<svg height="30" viewBox="0 0 292 30" width="292" xmlns="http://www.w3.org/2000/svg"><g fill="#fff"><path d="m16.687 6.824v21.376h-5.656v-21.376h-8.853v-5.148h23.362v5.148z"/><path d="m35.608 12.558h12.4v5.109h-12.4v5.421h14v5.112h-19.654v-26.524h19.656v5.109h-14z"/><path d="m75.261 17.472h5.772c-1.092 6.786-6.2 11.271-13.066 11.271a13.526 13.526 0 0 1 -13.845-13.806 13.526 13.526 0 0 1 13.845-13.807c6.865 0 11.974 4.485 13.066 11.271h-5.772c-.936-3.783-3.471-5.888-7.294-5.888-4.719 0-8.151 3.392-8.151 8.424s3.432 8.424 8.151 8.424c3.823 0 6.358-2.106 7.294-5.889z"/><path d="m110 28.2h-5.655v-10.378h-11.859v10.378h-5.655v-26.524h5.655v11h11.857v-11h5.657z"/><path d="m140.835 28.2h-4.368l-13.923-16.11v16.11h-5.655v-26.524h4.251l14.04 16.537v-16.537h5.655z"/><path d="m174.34 14.937a13.865 13.865 0 1 1 -13.885-13.807 13.75 13.75 0 0 1 13.885 13.807zm-5.734 0a8.16 8.16 0 1 0 -16.3 0 8.16 8.16 0 1 0 16.3 0z"/><path d="m199.326 28.2h-19.188v-26.524h5.655v21.49h13.533z"/><path d="m229.812 14.937a13.865 13.865 0 1 1 -13.884-13.807 13.75 13.75 0 0 1 13.884 13.807zm-5.733 0a8.16 8.16 0 1 0 -16.3 0 8.16 8.16 0 1 0 16.3 0z"/><path d="m261.753 28.2h-4.329l-.312-3.666a10.225 10.225 0 0 1 -8.815 4.212 13.46 13.46 0 0 1 -13.884-13.456 13.7 13.7 0 0 1 14.041-14.16c5.85 0 11.466 3.237 12.987 9.828h-6.006c-1.327-3.7-4.524-4.484-6.9-4.484-4.914 0-8.424 3.353-8.424 8.775a7.918 7.918 0 0 0 8.229 8.112 7.419 7.419 0 0 0 7.333-4.954h-7.843v-4.992h13.923z"/><path d="m279.786 19.655v8.545h-5.694v-8.545l-10.57-17.979h6.241l7.137 12.286 7.137-12.286h6.24z"/></g></svg>