<svg height="30" viewBox="0 0 84 30" width="84" xmlns="http://www.w3.org/2000/svg"><g fill="#e60012"><path d="m15.687 6.824v21.376h-5.655v-21.376h-8.853v-5.148h23.362v5.148z"/><path d="m55.187 14.936a13.865 13.865 0 1 1 -13.887-13.806 13.751 13.751 0 0 1 13.887 13.806zm-5.733 0a8.16 8.16 0 1 0 -16.3 0 8.16 8.16 0 1 0 16.3 0z"/><path d="m71.359 1.676c6.475 0 10.726 3.705 10.726 9.4 0 5.967-4.525 9.867-11.467 9.867h-3.979v7.257h-5.654v-26.524zm-.195 14.157c3.2 0 5.343-1.911 5.343-4.758 0-2.574-2.145-4.251-5.343-4.251h-4.525v9.009z"/></g></svg>